<svg width="320" height="320" viewBox="0 0 320 320" xmlns="http://www.w3.org/2000/svg" role="img" aria-labelledby="title desc">
  <title id="title">Taur.ai Shona multilingual assistant</title>
  <desc id="desc">Stylized African customer support assistant with headset, multilingual speech bubbles, and service function chips for chat, tickets, and wallets.</desc>

  <defs>
    <linearGradient id="bg" x1="0" y1="0" x2="1" y2="1">
      <stop offset="0" stop-color="#fde8bb" />
      <stop offset="1" stop-color="#e6a95f" />
    </linearGradient>
    <linearGradient id="panel" x1="0" y1="0" x2="0" y2="1">
      <stop offset="0" stop-color="#fff9ed" />
      <stop offset="1" stop-color="#f5e0bf" />
    </linearGradient>
    <linearGradient id="shirt" x1="0" y1="0" x2="1" y2="1">
      <stop offset="0" stop-color="#1f5a6d" />
      <stop offset="1" stop-color="#103f4f" />
    </linearGradient>
  </defs>

  <rect width="320" height="320" rx="30" fill="url(#bg)" />
  <circle cx="52" cy="52" r="40" fill="#f7d08a" opacity="0.6" />
  <circle cx="288" cy="46" r="30" fill="#ffdca0" opacity="0.5" />
  <circle cx="276" cy="284" r="44" fill="#d68e47" opacity="0.25" />

  <path d="M0 70L22 60L44 70L66 60L88 70L110 60L132 70L154 60L176 70L198 60L220 70L242 60L264 70L286 60L308 70L320 66V88H0Z" fill="#bd7433" opacity="0.2" />

  <g>
    <rect x="22" y="34" width="92" height="34" rx="16" fill="url(#panel)" stroke="#c98a44" stroke-width="1" />
    <path d="M50 67L58 82L69 67" fill="url(#panel)" stroke="#c98a44" stroke-width="1" />
    <text x="68" y="56" text-anchor="middle" font-size="12" font-family="DM Sans, Segoe UI, sans-serif" fill="#6f3d10" font-weight="700">Mhoro</text>
  </g>

  <g>
    <rect x="206" y="30" width="92" height="34" rx="16" fill="url(#panel)" stroke="#c98a44" stroke-width="1" />
    <path d="M258 63L252 78L242 63" fill="url(#panel)" stroke="#c98a44" stroke-width="1" />
    <text x="252" y="52" text-anchor="middle" font-size="12" font-family="DM Sans, Segoe UI, sans-serif" fill="#6f3d10" font-weight="700">Hello</text>
  </g>

  <g>
    <rect x="96" y="10" width="128" height="30" rx="15" fill="url(#panel)" stroke="#c98a44" stroke-width="1" />
    <text x="160" y="30" text-anchor="middle" font-size="11" font-family="DM Sans, Segoe UI, sans-serif" fill="#6f3d10" font-weight="700">Salibonani</text>
  </g>

  <g>
    <ellipse cx="160" cy="230" rx="86" ry="58" fill="url(#shirt)" />
    <path d="M111 209C126 198 143 192 160 192C177 192 194 198 209 209" fill="none" stroke="#3b7f95" stroke-width="6" stroke-linecap="round" />

    <ellipse cx="160" cy="151" rx="52" ry="60" fill="#9b6944" />
    <ellipse cx="160" cy="154" rx="45" ry="50" fill="#ad7650" />

    <path d="M106 147C106 103 132 74 160 74C188 74 214 103 214 147V164H198V149C198 118 180 96 160 96C140 96 122 118 122 149V164H106Z" fill="#2a1f18" />
    <path d="M133 125C144 115 157 110 171 111C168 106 162 103 155 102C147 101 139 105 133 112Z" fill="#3a2a20" opacity="0.7" />

    <ellipse cx="143" cy="152" rx="5" ry="4" fill="#2e1b12" />
    <ellipse cx="177" cy="152" rx="5" ry="4" fill="#2e1b12" />
    <path d="M149 174C154 179 166 179 171 174" fill="none" stroke="#5f321c" stroke-width="3" stroke-linecap="round" />
    <path d="M159 156L156 167H163" fill="none" stroke="#87573b" stroke-width="2" stroke-linecap="round" stroke-linejoin="round" />

    <path d="M118 131C118 102 137 80 160 80C183 80 202 102 202 131" fill="none" stroke="#2f5b84" stroke-width="8" stroke-linecap="round" />
    <rect x="103" y="129" width="14" height="36" rx="7" fill="#2f5b84" />
    <rect x="203" y="129" width="14" height="36" rx="7" fill="#2f5b84" />
    <circle cx="214" cy="170" r="5" fill="#62b4d8" />
    <path d="M214 170L231 175" stroke="#62b4d8" stroke-width="3" stroke-linecap="round" />

    <ellipse cx="160" cy="198" rx="18" ry="8" fill="#9b6944" />
    <rect x="142" y="198" width="36" height="11" rx="5.5" fill="#9b6944" />
  </g>

  <g>
    <rect x="22" y="266" width="88" height="30" rx="15" fill="#fff7ea" stroke="#d29b5a" />
    <rect x="36" y="274" width="14" height="10" rx="3" fill="#2f5b84" />
    <path d="M40 284L44 288L49 284" fill="#2f5b84" />
    <text x="79" y="285" text-anchor="middle" font-size="11" font-family="DM Sans, Segoe UI, sans-serif" fill="#7a4b1d" font-weight="700">Chat</text>
  </g>

  <g>
    <rect x="116" y="266" width="94" height="30" rx="15" fill="#fff7ea" stroke="#d29b5a" />
    <rect x="131" y="273" width="13" height="12" rx="2" fill="#2f5b84" />
    <rect x="135" y="269" width="5" height="3" rx="1" fill="#2f5b84" />
    <text x="172" y="285" text-anchor="middle" font-size="11" font-family="DM Sans, Segoe UI, sans-serif" fill="#7a4b1d" font-weight="700">Tickets</text>
  </g>

  <g>
    <rect x="216" y="266" width="82" height="30" rx="15" fill="#fff7ea" stroke="#d29b5a" />
    <rect x="230" y="274" width="14" height="10" rx="2" fill="#2f5b84" />
    <path d="M230 278H244" stroke="#fff7ea" stroke-width="2" />
    <text x="268" y="285" text-anchor="middle" font-size="11" font-family="DM Sans, Segoe UI, sans-serif" fill="#7a4b1d" font-weight="700">Wallets</text>
  </g>
</svg>
